<svg width="54" height="54" viewBox="0 0 54 54" fill="none" xmlns="http://www.w3.org/2000/svg">
<path d="M27 0C41.9117 0 54 12.0883 54 27C54 41.9117 41.9117 54 27 54C12.0883 54 0 41.9117 0 27C0 12.0883 12.0883 0 27 0ZM25 4C12.2975 4 2 14.2975 2 27C2 39.7025 12.2975 50 25 50C37.7025 50 48 39.7025 48 27C48 14.2975 37.7025 4 25 4Z" fill="#F05851"/>
<path d="M24 5C36.1503 5 46 14.8497 46 27C46 39.1503 36.1503 49 24 49C11.8497 49 2 39.1503 2 27C2 14.8497 11.8497 5 24 5ZM21.5 7C10.7304 7 2 15.9543 2 27C2 38.0457 10.7304 47 21.5 47C32.2696 47 41 38.0457 41 27C41 15.9543 32.2696 7 21.5 7Z" fill="#F05851"/>
<path d="M2.00488 26.584C2.22035 16.2827 10.4181 8 20.5 8C30.7173 8 39 16.5066 39 27C39 37.4934 30.7173 46 20.5 46C10.4423 46 2.25904 37.7571 2.00586 27.4902L2.00488 27.4131C2.22398 36.0587 9.30155 43 18 43C26.8366 43 34 35.8366 34 27C34 18.1634 26.8366 11 18 11C9.30253 11 2.2255 17.9397 2.00488 26.584ZM2.00488 26.584C2.00135 26.7222 2 26.8609 2 27C2 26.861 2.00199 26.7223 2.00488 26.584Z" fill="#F05851"/>
<path d="M2.00391 26.6504C2.18349 18.5276 8.60483 12 16.5 12C24.5081 12 31 18.7157 31 27C31 35.2843 24.5081 42 16.5 42C8.61686 42 2.20317 35.4923 2.00488 27.3867L2.00391 27.3359C2.17523 34.3604 7.70444 40 14.5 40C21.4036 40 27 34.1797 27 27C27 19.8203 21.4036 14 14.5 14C7.70884 14 2.18206 19.6323 2.00391 26.6504ZM2.00391 26.6504C2.00096 26.7665 2 26.8831 2 27C2 26.8831 2.00134 26.7666 2.00391 26.6504Z" fill="#F05851"/>
<path d="M13.5 16C19.8513 16 25 20.9249 25 27C25 33.0751 19.8513 38 13.5 38C7.14873 38 2 33.0751 2 27C2 20.9249 7.14873 16 13.5 16ZM11.5 18C6.25329 18 2 22.0294 2 27C2 31.9706 6.25329 36 11.5 36C16.7467 36 21 31.9706 21 27C21 22.0294 16.7467 18 11.5 18Z" fill="#F05851"/>
</svg>
