<svg width="2190" height="300" viewBox="0 0 2190 300" fill="none" xmlns="http://www.w3.org/2000/svg">
<path d="M150 0C232.843 0 300 67.1573 300 150C300 232.843 232.843 300 150 300C67.1573 300 0 232.843 0 150C0 67.1573 67.1573 0 150 0ZM138.889 22.2227C68.3191 22.2228 11.1113 79.4304 11.1113 150C11.1113 220.57 68.3191 277.777 138.889 277.777C209.458 277.777 266.667 220.57 266.667 150C266.667 79.4303 209.458 22.2227 138.889 22.2227Z" fill="#F05851"/>
<path d="M11.1199 148.556C11.8936 81.72 66.3142 27.7778 133.334 27.7778C200.835 27.7781 255.555 82.4992 255.555 150C255.555 217.502 200.835 272.222 133.334 272.222C66.3596 272.222 11.9666 218.353 11.1208 151.58L11.1199 151.436C11.8695 212.139 60.0808 261.111 119.444 261.111C179.275 261.111 227.778 211.365 227.778 150C227.778 88.6355 179.275 38.8892 119.444 38.8892C60.0834 38.8893 11.8736 87.8567 11.1199 148.556ZM11.1199 148.556C11.1139 149.037 11.1111 149.518 11.1111 150C11.1111 149.519 11.1143 149.037 11.1199 148.556Z" fill="#F05851"/>
<path d="M113.888 44.4445C170.651 44.4445 216.667 91.7034 216.667 150C216.667 208.297 170.651 255.556 113.888 255.556C57.5129 255.556 11.7393 208.939 11.1179 151.191C11.7551 199.734 51.3053 238.889 99.9998 238.889C149.092 238.889 188.888 199.092 188.888 150C188.888 100.908 149.092 61.1115 99.9998 61.1115C51.3062 61.1116 11.7566 100.265 11.1179 148.807C11.7407 91.0599 57.5138 44.4447 113.888 44.4445Z" fill="#F05851"/>
<path d="M11.1169 149.06C11.6039 103.47 47.4804 66.6667 91.6667 66.6667C136.156 66.6668 172.222 103.976 172.222 150C172.222 196.023 136.156 233.334 91.6667 233.334C47.5246 233.334 11.6752 196.604 11.1179 151.077L11.1169 150.933C11.5974 190.39 42.5019 222.222 80.5554 222.222C118.909 222.222 150 189.887 150 150C150 110.113 118.908 77.7781 80.5554 77.7781C42.504 77.7781 11.6007 109.606 11.1169 149.06ZM11.1169 149.06C11.1131 149.373 11.1111 149.686 11.1111 150C11.1111 149.686 11.1136 149.373 11.1169 149.06Z" fill="#F05851"/>
<path d="M11.115 149.347C11.4812 115.897 39.9429 88.889 74.9998 88.8889C110.285 88.8889 138.888 116.25 138.888 150C138.888 183.751 110.285 211.112 74.9998 211.112C39.9908 211.111 11.5583 184.177 11.116 150.79L11.115 150.647C11.4805 177.963 34.9681 200 63.8884 200C93.0367 200 116.667 177.614 116.667 150C116.667 122.386 93.0368 100 63.8884 100C34.9704 100 11.4841 122.034 11.115 149.347ZM11.115 149.347C11.1121 149.564 11.1111 149.782 11.1111 150C11.1111 149.782 11.1126 149.564 11.115 149.347Z" fill="#F05851"/>
<path d="M1240.19 92.9893C1231.79 88.3893 1223.19 84.5893 1214.39 81.5893C1205.79 78.5893 1197.69 77.0893 1190.09 77.0893C1180.69 77.0893 1173.29 78.9893 1167.89 82.7893C1162.49 86.5893 1159.79 92.2893 1159.79 99.8893C1159.79 105.089 1161.79 109.789 1165.79 113.989C1169.99 117.989 1175.29 121.589 1181.69 124.789C1188.29 127.989 1195.09 130.889 1202.09 133.489C1208.49 135.889 1214.79 138.789 1220.99 142.189C1227.39 145.389 1233.09 149.489 1238.09 154.489C1243.09 159.289 1247.09 165.389 1250.09 172.789C1253.09 179.989 1254.59 188.889 1254.59 199.489C1254.59 210.689 1251.69 221.089 1245.89 230.689C1240.09 240.289 1231.59 248.089 1220.39 254.089C1209.19 259.889 1195.39 262.789 1178.99 262.789C1170.59 262.789 1161.99 261.989 1153.19 260.389C1144.59 258.589 1136.09 255.989 1127.69 252.589C1119.29 248.989 1111.19 244.489 1103.39 239.089L1122.59 205.189C1127.79 208.989 1133.39 212.389 1139.39 215.389C1145.59 218.189 1151.79 220.389 1157.99 221.989C1164.19 223.589 1169.89 224.389 1175.09 224.389C1180.29 224.389 1185.49 223.689 1190.69 222.289C1196.09 220.689 1200.49 218.089 1203.89 214.489C1207.49 210.889 1209.29 205.889 1209.29 199.489C1209.29 195.089 1207.79 191.089 1204.79 187.489C1201.99 183.889 1198.09 180.589 1193.09 177.589C1188.29 174.589 1182.99 171.989 1177.19 169.789C1170.39 167.189 1163.39 164.189 1156.19 160.789C1148.99 157.389 1142.19 153.289 1135.79 148.489C1129.59 143.489 1124.49 137.389 1120.49 130.189C1116.69 122.789 1114.79 113.789 1114.79 103.189C1114.79 90.3893 1117.59 79.2893 1123.19 69.8893C1128.99 60.4893 1137.09 53.0893 1147.49 47.6893C1157.89 42.0893 1169.89 38.9893 1183.49 38.3893C1201.29 38.3893 1215.69 40.4893 1226.69 44.6893C1237.89 48.8893 1247.89 53.8893 1256.69 59.6893L1240.19 92.9893Z" fill="white"/>
<path d="M955.531 178.789C955.531 185.789 957.631 192.489 961.831 198.889C966.031 205.289 971.531 210.489 978.331 214.489C985.331 218.489 992.931 220.489 1001.13 220.489C1010.13 220.489 1018.13 218.489 1025.13 214.489C1032.13 210.489 1037.63 205.289 1041.63 198.889C1045.83 192.489 1047.93 185.789 1047.93 178.789V39.5892H1090.83V179.689C1090.83 195.889 1086.83 210.289 1078.83 222.889C1070.83 235.289 1060.03 245.089 1046.43 252.289C1032.83 259.289 1017.73 262.789 1001.13 262.789C984.731 262.789 969.731 259.289 956.131 252.289C942.731 245.089 932.031 235.289 924.031 222.889C916.031 210.289 912.031 195.889 912.031 179.689V39.5892H955.531V178.789Z" fill="white"/>
<path d="M893.952 242.089C891.552 244.089 887.052 246.789 880.452 250.189C874.052 253.589 866.152 256.589 856.752 259.189C847.352 261.789 836.952 262.989 825.552 262.789C808.152 262.389 792.552 259.289 778.752 253.489C765.152 247.489 753.552 239.389 743.952 229.189C734.552 218.989 727.352 207.289 722.352 194.089C717.352 180.889 714.852 166.789 714.852 151.789C714.852 134.989 717.352 119.589 722.352 105.589C727.552 91.5893 734.852 79.4893 744.252 69.2893C753.852 59.0893 765.252 51.1893 778.452 45.5893C791.652 39.9893 806.252 37.1893 822.252 37.1893C837.052 37.1893 850.152 39.1893 861.552 43.1893C872.952 47.1893 882.252 51.4893 889.452 56.0893L872.352 97.1893C867.352 93.3893 860.652 89.4893 852.252 85.4893C844.052 81.2893 834.552 79.1893 823.752 79.1893C815.352 79.1893 807.252 80.9893 799.452 84.5893C791.852 87.9893 785.052 92.8893 779.052 99.2893C773.252 105.689 768.652 113.189 765.252 121.789C761.852 130.189 760.152 139.389 760.152 149.389C760.152 159.989 761.652 169.689 764.652 178.489C767.852 187.289 772.352 194.889 778.152 201.289C783.952 207.489 790.852 212.289 798.852 215.689C807.052 219.089 816.252 220.789 826.452 220.789C838.252 220.789 848.352 218.889 856.752 215.089C865.152 211.289 871.552 207.289 875.952 203.089L893.952 242.089Z" fill="white"/>
<path d="M480.383 150.289C480.383 135.089 483.283 120.689 489.083 107.089C494.883 93.4893 502.883 81.4893 513.083 71.0893C523.483 60.4893 535.483 52.1893 549.083 46.1893C562.683 40.1893 577.283 37.1893 592.883 37.1893C608.283 37.1893 622.783 40.1893 636.383 46.1893C649.983 52.1893 661.983 60.4893 672.383 71.0893C682.983 81.4893 691.183 93.4893 696.983 107.089C702.983 120.689 705.983 135.089 705.983 150.289C705.983 165.889 702.983 180.489 696.983 194.089C691.183 207.689 682.983 219.689 672.383 230.089C661.983 240.289 649.983 248.289 636.383 254.089C622.783 259.889 608.283 262.789 592.883 262.789C577.283 262.789 562.683 259.889 549.083 254.089C535.483 248.289 523.483 240.289 513.083 230.089C502.883 219.689 494.883 207.689 489.083 194.089C483.283 180.489 480.383 165.889 480.383 150.289ZM525.383 150.289C525.383 160.089 527.083 169.289 530.483 177.889C534.083 186.289 538.983 193.789 545.183 200.389C551.583 206.789 558.883 211.789 567.083 215.389C575.483 218.989 584.583 220.789 594.383 220.789C603.783 220.789 612.483 218.989 620.483 215.389C628.683 211.789 635.783 206.789 641.783 200.389C647.783 193.789 652.483 186.289 655.883 177.889C659.283 169.289 660.983 160.089 660.983 150.289C660.983 140.289 659.183 130.989 655.583 122.389C652.183 113.789 647.383 106.289 641.183 99.8893C635.183 93.2893 628.083 88.1893 619.883 84.5893C611.683 80.9893 602.783 79.1893 593.183 79.1893C583.583 79.1893 574.683 80.9893 566.483 84.5893C558.283 88.1893 551.083 93.2893 544.883 99.8893C538.683 106.289 533.883 113.789 530.483 122.389C527.083 130.989 525.383 140.289 525.383 150.289Z" fill="white"/>
<path d="M335 39.5892H473V81.5892H378.5V131.689H460.4V173.689H378.5V260.389H335V39.5892Z" fill="white"/>
<path d="M2123.35 39.5894C2136.55 39.5894 2148.05 41.8894 2157.85 46.4894C2167.85 50.8894 2175.55 57.5894 2180.95 66.5894C2186.55 75.3894 2189.35 86.4894 2189.35 99.8894C2189.35 107.889 2188.05 115.689 2185.45 123.289C2183.05 130.689 2179.05 137.389 2173.45 143.389C2168.05 149.389 2161.05 154.189 2152.45 157.789C2144.05 161.389 2133.85 163.189 2121.85 163.189H2088.85V252.589H2074.15V39.5894H2123.35ZM2121.85 149.089C2132.25 149.089 2140.85 147.489 2147.65 144.289C2154.65 140.889 2160.05 136.689 2163.85 131.689C2167.85 126.489 2170.65 121.089 2172.25 115.489C2174.05 109.889 2174.95 104.689 2174.95 99.8894C2174.95 93.0894 2173.85 86.8894 2171.65 81.2894C2169.45 75.6894 2166.15 70.8894 2161.75 66.8894C2157.55 62.6894 2152.35 59.4894 2146.15 57.2894C2139.95 54.8894 2132.85 53.6894 2124.85 53.6894H2088.85V149.089H2121.85Z" fill="white"/>
<path d="M1902.54 180.589C1902.54 192.989 1905.04 203.689 1910.04 212.689C1915.24 221.689 1922.24 228.689 1931.04 233.689C1939.84 238.489 1949.84 240.889 1961.04 240.889C1972.44 240.889 1982.54 238.489 1991.34 233.689C2000.34 228.689 2007.34 221.689 2012.34 212.689C2017.54 203.689 2020.14 192.989 2020.14 180.589V39.5894H2034.54V181.489C2034.54 196.889 2031.24 210.089 2024.64 221.089C2018.24 232.089 2009.44 240.489 1998.24 246.289C1987.24 252.089 1974.84 254.989 1961.04 254.989C1947.24 254.989 1934.74 252.089 1923.54 246.289C1912.54 240.489 1903.84 232.089 1897.44 221.089C1891.04 210.089 1887.84 196.889 1887.84 181.489V39.5894H1902.54V180.589Z" fill="white"/>
<path d="M1643.85 146.389C1643.85 131.389 1646.65 117.389 1652.25 104.389C1657.85 91.1893 1665.65 79.5893 1675.65 69.5893C1685.65 59.3893 1697.15 51.4893 1710.15 45.8893C1723.35 40.0893 1737.45 37.1893 1752.45 37.1893C1767.45 37.1893 1781.55 40.0893 1794.75 45.8893C1807.95 51.4893 1819.55 59.3893 1829.55 69.5893C1839.55 79.5893 1847.35 91.1893 1852.95 104.389C1858.75 117.389 1861.65 131.389 1861.65 146.389C1861.65 161.389 1858.75 175.489 1852.95 188.689C1847.35 201.689 1839.55 213.189 1829.55 223.189C1819.55 233.189 1807.95 240.989 1794.75 246.589C1781.55 252.189 1767.45 254.989 1752.45 254.989C1737.45 254.989 1723.35 252.289 1710.15 246.889C1697.15 241.489 1685.65 233.889 1675.65 224.089C1665.65 214.289 1657.85 202.789 1652.25 189.589C1646.65 176.389 1643.85 161.989 1643.85 146.389ZM1658.85 146.689C1658.85 159.689 1661.25 171.889 1666.05 183.289C1670.85 194.689 1677.55 204.689 1686.15 213.289C1694.75 221.889 1704.65 228.689 1715.85 233.689C1727.25 238.489 1739.35 240.889 1752.15 240.889C1765.35 240.889 1777.65 238.489 1789.05 233.689C1800.45 228.689 1810.45 221.889 1819.05 213.289C1827.65 204.689 1834.35 194.689 1839.15 183.289C1844.15 171.889 1846.65 159.589 1846.65 146.389C1846.65 133.389 1844.15 121.189 1839.15 109.789C1834.35 98.1893 1827.65 88.0893 1819.05 79.4893C1810.45 70.6893 1800.45 63.7893 1789.05 58.7893C1777.65 53.7893 1765.45 51.2893 1752.45 51.2893C1739.25 51.2893 1726.95 53.8893 1715.55 59.0893C1704.15 64.0893 1694.15 70.9893 1685.55 79.7893C1677.15 88.5893 1670.55 98.7893 1665.75 110.389C1661.15 121.789 1658.85 133.889 1658.85 146.689Z" fill="white"/>
<path d="M1545.15 39.5894C1553.15 39.5894 1561.05 40.7894 1568.85 43.1894C1576.85 45.3894 1584.05 48.9894 1590.45 53.9893C1597.05 58.7894 1602.35 64.9894 1606.35 72.5894C1610.35 80.1894 1612.35 89.2894 1612.35 99.8894C1612.35 107.889 1611.15 115.689 1608.75 123.289C1606.35 130.689 1602.45 137.389 1597.05 143.389C1591.65 149.389 1584.65 154.189 1576.05 157.789C1567.45 161.389 1556.85 163.189 1544.25 163.189H1511.25V252.589H1496.55V39.5894H1545.15ZM1543.35 149.089C1553.95 149.089 1562.75 147.589 1569.75 144.589C1576.75 141.589 1582.25 137.689 1586.25 132.889C1590.25 128.089 1593.05 122.889 1594.65 117.289C1596.45 111.489 1597.35 105.889 1597.35 100.489C1597.35 94.0894 1596.15 88.0894 1593.75 82.4894C1591.55 76.8894 1588.25 71.9894 1583.85 67.7893C1579.45 63.3894 1574.15 59.9894 1567.95 57.5894C1561.75 54.9894 1554.85 53.6894 1547.25 53.6894H1511.25V149.089H1543.35ZM1573.95 155.689L1633.05 252.589H1615.95L1556.55 155.989L1573.95 155.689Z" fill="white"/>
<path d="M1461.99 237.589C1458.39 239.989 1453.99 242.289 1448.79 244.489C1443.79 246.489 1438.39 248.289 1432.59 249.889C1426.79 251.489 1420.79 252.689 1414.59 253.489C1408.59 254.489 1402.89 254.989 1397.49 254.989C1380.69 254.989 1365.49 252.289 1351.89 246.889C1338.49 241.289 1326.99 233.689 1317.39 224.089C1307.79 214.289 1300.39 202.989 1295.19 190.189C1290.19 177.189 1287.69 163.189 1287.69 148.189C1287.69 131.989 1290.49 117.089 1296.09 103.489C1301.89 89.8893 1309.79 78.1893 1319.79 68.3893C1329.79 58.3893 1341.39 50.6893 1354.59 45.2893C1367.79 39.8893 1381.79 37.1893 1396.59 37.1893C1407.79 37.1893 1418.29 38.5893 1428.09 41.3893C1438.09 44.1893 1447.09 47.9893 1455.09 52.7893L1449.69 65.9893C1445.09 63.1893 1439.89 60.7893 1434.09 58.7893C1428.29 56.5893 1422.29 54.8893 1416.09 53.6893C1410.09 52.4893 1404.09 51.8893 1398.09 51.8893C1384.49 51.8893 1371.89 54.2893 1360.29 59.0893C1348.69 63.8893 1338.59 70.5893 1329.99 79.1893C1321.39 87.7893 1314.69 97.8893 1309.89 109.489C1305.09 121.089 1302.69 133.689 1302.69 147.289C1302.69 160.489 1304.89 172.789 1309.29 184.189C1313.89 195.389 1320.29 205.289 1328.49 213.889C1336.89 222.289 1346.89 228.889 1358.49 233.689C1370.09 238.289 1382.99 240.589 1397.19 240.589C1405.59 240.589 1414.39 239.589 1423.59 237.589C1432.79 235.589 1440.69 232.689 1447.29 228.889V169.789H1399.29V155.689H1461.99V237.589Z" fill="white"/>
</svg>
